<svg
  id='wave'
  style='transform:rotate(180deg); transition:0.3s;'
  viewBox='0 0 950 325'
  version='1.1'
  xmlns='http://www.w3.org/2000/svg'
>
  <defs>
    <linearGradient id="sw-gradient-0" x1="0" x2="0" y1="1" y2="0">
      <stop stop-color="#282828" offset="0%"></stop>
      <stop stop-color="#3f3f3f" offset="100%"></stop>
    </linearGradient>
  </defs>
  <path
    style='transform:translate(0, 0px); opacity:1;'
    fill="url(#sw-gradient-0)"
    d="M0,196L240,179.7C480,163,960,131,1440,155.2C1920,180,2400,261,2880,318.5C3360,376,3840,408,4320,424.7C4800,441,5280,441,5760,383.8C6240,327,6720,212,7200,204.2C7680,196,8160,294,8640,302.2C9120,310,9600,229,10080,187.8C10560,147,11040,147,11520,179.7C12000,212,12480,278,12960,269.5C13440,261,13920,180,14400,130.7C14880,82,15360,65,15840,98C16320,131,16800,212,17280,269.5C17760,327,18240,359,18720,343C19200,327,19680,261,20160,204.2C20640,147,21120,98,21600,81.7C22080,65,22560,82,23040,114.3C23520,147,24000,196,24480,212.3C24960,229,25440,212,25920,236.8C26400,261,26880,327,27360,310.3C27840,294,28320,196,28800,171.5C29280,147,29760,196,30240,253.2C30720,310,31200,376,31680,375.7C32160,376,32640,310,33120,236.8C33600,163,34080,82,34320,40.8L34560,0L34560,490L34320,490C34080,490,33600,490,33120,490C32640,490,32160,490,31680,490C31200,490,30720,490,30240,490C29760,490,29280,490,28800,490C28320,490,27840,490,27360,490C26880,490,26400,490,25920,490C25440,490,24960,490,24480,490C24000,490,23520,490,23040,490C22560,490,22080,490,21600,490C21120,490,20640,490,20160,490C19680,490,19200,490,18720,490C18240,490,17760,490,17280,490C16800,490,16320,490,15840,490C15360,490,14880,490,14400,490C13920,490,13440,490,12960,490C12480,490,12000,490,11520,490C11040,490,10560,490,10080,490C9600,490,9120,490,8640,490C8160,490,7680,490,7200,490C6720,490,6240,490,5760,490C5280,490,4800,490,4320,490C3840,490,3360,490,2880,490C2400,490,1920,490,1440,490C960,490,480,490,240,490L0,490Z"
  ></path>
</svg>
