<?xml version="1.0" standalone="no"?>
<!DOCTYPE svg PUBLIC "-//W3C//DTD SVG 20010904//EN"
 "http://www.w3.org/TR/2001/REC-SVG-20010904/DTD/svg10.dtd">
<svg version="1.0" xmlns="http://www.w3.org/2000/svg"
 width="150.000000pt" height="150.000000pt" viewBox="0 0 150.000000 150.000000"
 preserveAspectRatio="xMidYMid meet">
<metadata>
Created by potrace 1.14, written by Peter Selinger 2001-2017
</metadata>
<g transform="translate(0.000000,150.000000) scale(0.100000,-0.100000)"
fill="#000000" stroke="none">
<path d="M583 1475 c-184 -46 -327 -140 -435 -285 -53 -71 -106 -188 -124
-271 -18 -89 -21 -119 -18 -192 8 -199 81 -365 220 -503 106 -104 225 -170
372 -205 51 -13 241 -20 257 -10 6 3 16 6 24 8 245 37 473 224 564 463 39 103
53 181 51 282 -2 106 -6 124 -40 228 -66 199 -224 368 -420 448 -38 16 -85 32
-104 35 -19 4 -46 10 -60 13 -73 16 -198 11 -287 -11z"/>
</g>
</svg>
